/* XPM */
static char * bkpt_disabled_xpm[] = {
"7 7 9 1",
" 	c None",
".	c #FFFFFF",
"+	c #D8D8D8",
"@	c #606060",
"#	c #404040",
"$	c #000000",
"%	c #808080",
"&	c #A0A0A0",
"*	c #C0C0C0",
".+@#@+.",
"+$%&%$+",
"@%&*&%@",
"#&***&#",
"@%&*&%@",
"+$%&%$+",
".+@#@+."};
